<?xml version="1.0" standalone="no"?>
<!DOCTYPE svg PUBLIC "-//W3C//DTD SVG 20010904//EN"
 "http://www.w3.org/TR/2001/REC-SVG-20010904/DTD/svg10.dtd">
<svg version="1.0" xmlns="http://www.w3.org/2000/svg"
 width="500.000000pt" height="500.000000pt" viewBox="0 0 500.000000 500.000000"
 preserveAspectRatio="xMidYMid meet">
<metadata>
Created by potrace 1.14, written by Peter Selinger 2001-2017
</metadata>
<g transform="translate(0.000000,500.000000) scale(0.100000,-0.100000)"
fill="#000000" stroke="none">
<path d="M0 2500 l0 -2500 2500 0 2500 0 0 2500 0 2500 -2500 0 -2500 0 0
-2500z m1470 1435 c240 -36 458 -136 638 -293 l43 -37 -48 -56 c-26 -30 -90
-103 -141 -162 l-92 -106 -83 56 c-156 107 -302 159 -477 170 -213 13 -372
-51 -430 -175 -17 -35 -23 -66 -23 -123 -1 -181 85 -249 493 -388 374 -127
547 -218 689 -362 135 -137 202 -346 188 -588 -20 -356 -236 -624 -599 -745
-279 -94 -678 -94 -965 0 -169 55 -367 166 -481 271 l-52 48 151 167 151 167
61 -48 c185 -143 370 -213 590 -226 237 -15 417 62 495 210 25 46 27 60 27
165 0 109 -2 118 -30 169 -59 108 -156 161 -494 276 -307 104 -468 184 -595
294 -112 97 -183 214 -217 357 -30 126 -23 325 14 432 34 99 79 172 157 255
132 141 306 230 535 271 106 19 374 20 495 1z m1750 -1430 l0 -1385 -295 0
-295 0 0 1385 0 1385 295 0 295 0 0 -1385z m1564 1373 c-4 -7 -211 -289 -461
-625 l-453 -613 495 -755 c272 -416 495 -758 495 -760 0 -3 -154 -5 -343 -5
l-344 0 -463 734 c-254 404 -463 737 -463 741 0 4 206 297 458 651 l458 644
314 0 c249 0 313 -3 307 -12z"/>
</g>
</svg>
